ply
format ascii 1.0
Created by Blender3D 248 - www.blender.org, source file: 
element vertex 16
property float x
property float y
property float z
property float nx
property float ny
property float nz
property float s
property float t
property uchar red
property uchar green
property uchar blue
element face 8
property list uchar uint vertex_indices
end_header
1.000000 -1.000000 1.000000 0.000000 1.000000 0.000000 1.000000 1.000000 255 0 0 
-1.000000 -1.000000 -1.000000 0.000000 1.000000 0.000000 0.000000 0.000000 255 0 0 
-1.000000 -1.000000 1.000000 0.000000 1.000000 0.000000 1.000000 0.000000 255 0 0 
1.000000 -1.000000 -1.000000 0.000000 1.000000 0.000000 0.000000 1.000000 255 0 0 
1.000000 1.000000 -1.000000 -1.000000 0.000000 0.000000 0.000000 0.000000 0 255 0 
1.000000 -1.000000 1.000000 -1.000000 0.000000 0.000000 1.000000 1.000000 0 255 0 
1.000000 1.000000 1.000000 -1.000000 0.000000 0.000000 1.000000 0.000000 0 255 0
1.000000 -1.000000 -1.000000 -1.000000 0.000000 0.000000 0.000000 1.000000 0 255 0 
-1.000000 -1.000000 -1.000000 1.000000 0.000000 0.000000 1.000000 1.000000 0 0 255 
-1.000000 1.000000 -1.000000 1.000000 0.000000 0.000000 1.000000 0.000000 0 0 255 
-1.000000 -1.000000 1.000000 1.000000 0.000000 0.000000 0.000000 1.000000 0 0 255 
-1.000000 1.000000 1.000000 1.000000 0.000000 0.000000 0.000000 0.000000 0 0 255 
-1.000000 -1.000000 -1.000000 0.000000 0.000000 1.000000 0.000000 1.000000 255 0 255 
1.000000 1.000000 -1.000000 0.000000 0.000000 1.000000 1.000000 0.000000 255 0 255 
-1.00000 1.000000 -1.000000 0.000000 0.000000 1.000000 0.000000 0.000000 255 0 255 
1.000000 -1.000000 -1.000000 0.000000 0.000000 1.000000 1.000000 1.000000 255 0 255 
3 0 1 2 
3 1 0 3 
3 4 5 6 
3 4 7 5 
3 8 9 10 
3 10 9 11 
3 12 13 14 
3 12 15 13 
